<?xml version="1.0" encoding="UTF-8"?>
<svg version="1.1" xmlns="http://www.w3.org/2000/svg" width="225" height="224">
<path d="M0 0 C3.9375 0.5625 3.9375 0.5625 6.77514648 2.12695312 C10.51506738 3.82468607 12.44363484 3.67638598 16.47265625 3.09375 C17.69404297 2.93519531 18.91542969 2.77664062 20.17382812 2.61328125 C21.43646484 2.43152344 22.69910156 2.24976562 24 2.0625 C26.50942243 1.70236915 29.02116291 1.35794961 31.53515625 1.03125 C33.19816772 0.79051758 33.19816772 0.79051758 34.89477539 0.54492188 C38.50350729 0.56576988 40.10073554 1.38660884 42.9375 3.5625 C45.53458898 8.23404396 45.57839287 13.46730479 46.08203125 18.69921875 C46.50548828 20.11654297 46.50548828 20.11654297 46.9375 21.5625 C47.75476563 21.86285156 48.57203125 22.16320312 49.4140625 22.47265625 C50.24679688 22.83230469 51.07953125 23.19195312 51.9375 23.5625 C52.76489987 26.2797198 53.19106957 28.52135283 53.5 31.3125 C53.60803955 32.12219238 53.7160791 32.93188477 53.82739258 33.76611328 C54.0725753 35.61985094 54.30740193 37.47497556 54.53417969 39.33105469 C54.99197528 42.99896176 55.49726572 46.6594817 56.0078125 50.3203125 C56.7386032 55.60534244 57.46550771 60.89081134 58.16796875 66.1796875 C58.31645264 67.28940918 58.46493652 68.39913086 58.61791992 69.54248047 C58.90449441 72.25059846 58.96099522 74.84376727 58.9375 77.5625 C48.25385624 78.97980291 37.57016964 80.39678235 26.88642883 81.81335354 C21.92507874 82.47119569 16.96374324 83.12914752 12.00244141 83.78735352 C7.21087044 84.42303749 2.41926074 85.05842878 -2.37237549 85.69362068 C-4.19673025 85.93551359 -6.02107124 86.17751039 -7.84539795 86.41961479 C-10.40861388 86.75975798 -12.97187937 87.0995254 -15.53515625 87.43920898 C-16.28250534 87.53847183 -17.02985443 87.63773468 -17.79985046 87.74000549 C-19.88711792 88.01638764 -21.97467141 88.29039049 -24.0625 88.5625 C-25.15653641 88.70526965 -25.15653641 88.70526965 -26.27267456 88.85092354 C-29.89497986 89.31518864 -33.40858244 89.68209246 -37.0625 89.625 C-37.825625 89.61597656 -38.58875 89.60695313 -39.375 89.59765625 C-39.931875 89.58605469 -40.48875 89.57445312 -41.0625 89.5625 C-42.11893953 82.9037296 -43.10521534 76.23622224 -44.0625 69.5625 C-44.15631958 68.91335632 -44.25013916 68.26421265 -44.34680176 67.59539795 C-44.96711962 63.29157834 -45.56592102 58.98544396 -46.14245605 54.67553711 C-46.33915107 53.225186 -46.54170976 51.77561806 -46.75012207 50.3269043 C-47.04461523 48.27051136 -47.31768737 46.21230199 -47.5859375 44.15234375 C-47.75013184 42.95472412 -47.91432617 41.75710449 -48.08349609 40.52319336 C-48.0625 37.5625 -48.0625 37.5625 -46.71728516 35.65063477 C-45.0625 34.5625 -45.0625 34.5625 -43.0625 34.5625 C-43.24167969 33.39332031 -43.42085938 32.22414063 -43.60546875 31.01953125 C-43.82125694 29.47148552 -44.0360484 27.92330063 -44.25 26.375 C-44.43079102 25.22161133 -44.43079102 25.22161133 -44.61523438 24.04492188 C-45.1171215 20.27267346 -45.33882889 18.17303198 -43.73828125 14.63671875 C-40.51189949 10.64322524 -40.51189949 10.64322524 -37.28442383 10.06347656 C-36.12450928 9.94456055 -34.96459473 9.82564453 -33.76953125 9.703125 C-32.49916016 9.55617188 -31.22878906 9.40921875 -29.91992188 9.2578125 C-27.90443155 9.03205022 -25.889104 8.81389511 -23.87084961 8.61425781 C-13.55003592 7.72753865 -13.55003592 7.72753865 -5.46972656 1.85083008 C-3.62980917 0.16636719 -2.46818552 0.07659293 0 0 Z M-5.4375 4.5625 C-5.97375 5.2225 -6.51 5.8825 -7.0625 6.5625 C-5.24924449 6.44898483 -3.43686643 6.32137039 -1.625 6.1875 C-0.61566406 6.11789063 0.39367187 6.04828125 1.43359375 5.9765625 C2.67302734 5.77160156 2.67302734 5.77160156 3.9375 5.5625 C4.2675 4.9025 4.5975 4.2425 4.9375 3.5625 C1.03237724 1.60993862 -2.10689785 1.7577824 -5.4375 4.5625 Z M-0.0625 7.5625 C-0.0625 10.5325 -0.0625 13.5025 -0.0625 16.5625 C0.2675 16.5625 0.5975 16.5625 0.9375 16.5625 C0.9375 13.5925 0.9375 10.6225 0.9375 7.5625 C0.6075 7.5625 0.2775 7.5625 -0.0625 7.5625 Z M22.9375 15.5625 C22.9375 17.5425 22.9375 19.5225 22.9375 21.5625 C23.2675 21.5625 23.5975 21.5625 23.9375 21.5625 C23.9375 19.5825 23.9375 17.6025 23.9375 15.5625 C23.6075 15.5625 23.2775 15.5625 22.9375 15.5625 Z M-23.0625 18.5625 C-23.0625 20.8725 -23.0625 23.1825 -23.0625 25.5625 C-22.7325 25.5625 -22.4025 25.5625 -22.0625 25.5625 C-22.0625 23.2525 -22.0625 20.9425 -22.0625 18.5625 C-22.3925 18.5625 -22.7225 18.5625 -23.0625 18.5625 Z M0.9375 19.5625 C0.9375 22.8625 0.9375 26.1625 0.9375 29.5625 C1.2675 29.5625 1.5975 29.5625 1.9375 29.5625 C1.9375 26.2625 1.9375 22.9625 1.9375 19.5625 C1.6075 19.5625 1.2775 19.5625 0.9375 19.5625 Z M9.9375 19.5625 C10.9375 21.5625 10.9375 21.5625 10.9375 21.5625 Z M46.9375 24.5625 C46.9375 25.2225 46.9375 25.8825 46.9375 26.5625 C47.5975 26.5625 48.2575 26.5625 48.9375 26.5625 C48.9375 25.9025 48.9375 25.2425 48.9375 24.5625 C48.2775 24.5625 47.6175 24.5625 46.9375 24.5625 Z M-22.0625 25.5625 C-21.0625 27.5625 -21.0625 27.5625 -21.0625 27.5625 Z M48.9375 27.5625 C48.01710937 28.37332031 47.09671875 29.18414062 46.1484375 30.01953125 C36.92014591 38.10702672 27.6002045 46.18735655 17.54296875 53.2421875 C17.01316406 53.67789063 16.48335938 54.11359375 15.9375 54.5625 C15.9375 55.2225 15.9375 55.8825 15.9375 56.5625 C16.90574707 57.00118408 17.87399414 57.43986816 18.87158203 57.8918457 C22.48392806 59.52886283 26.09558032 61.16740572 29.70703125 62.80639648 C31.26641437 63.5138405 32.82598215 64.22087763 34.38574219 64.92749023 C36.63525983 65.94666825 38.88409639 66.96733617 41.1328125 67.98828125 C41.8236795 68.30090408 42.51454651 68.61352692 43.22634888 68.93562317 C44.21669632 69.3857502 44.21669632 69.3857502 45.22705078 69.8449707 C45.85436096 70.1298233 46.48167114 70.4146759 47.12799072 70.7081604 C48.87842987 71.5346107 50.59069252 72.44046597 52.30029297 73.34838867 C53.17057129 73.74904541 54.04084961 74.14970215 54.9375 74.5625 C55.5975 74.2325 56.2575 73.9025 56.9375 73.5625 C56.13241015 67.17044428 55.3131696 60.7803192 54.48388672 54.39135742 C54.20324773 52.21599875 53.92589664 50.04021335 53.65185547 47.86401367 C53.2582409 44.74280645 52.85297199 41.62330605 52.4453125 38.50390625 C52.3243924 37.52474747 52.20347229 36.54558868 52.07888794 35.53675842 C51.95891449 34.63590012 51.83894104 33.73504181 51.71533203 32.80688477 C51.56210983 31.61108543 51.56210983 31.61108543 51.40579224 30.39112854 C51.2512558 29.78768112 51.09671936 29.1842337 50.9375 28.5625 C50.2775 28.2325 49.6175 27.9025 48.9375 27.5625 Z M-3.0625 28.5625 C-2.7325 29.2225 -2.4025 29.8825 -2.0625 30.5625 C-1.4025 30.2325 -0.7425 29.9025 -0.0625 29.5625 C-1.0525 29.2325 -2.0425 28.9025 -3.0625 28.5625 Z M3.9375 28.5625 C4.9375 30.5625 4.9375 30.5625 4.9375 30.5625 Z M0.9375 31.5625 C-1.0999763 31.79108114 -3.14290303 31.97274278 -5.1875 32.125 C-6.28320312 32.20878906 -7.37890625 32.29257813 -8.5078125 32.37890625 C-9.35085937 32.43949219 -10.19390625 32.50007813 -11.0625 32.5625 C-11.0625 32.8925 -11.0625 33.2225 -11.0625 33.5625 C-9.27159747 33.75716332 -7.47973495 33.94301213 -5.6875 34.125 C-4.68976563 34.22941406 -3.69203125 34.33382812 -2.6640625 34.44140625 C-0.078463 34.77394708 -0.078463 34.77394708 1.9375 33.5625 C1.9375 36.2025 1.9375 38.8425 1.9375 41.5625 C2.2675 41.5625 2.5975 41.5625 2.9375 41.5625 C2.9375 38.9225 2.9375 36.2825 2.9375 33.5625 C4.5875 33.2325 6.2375 32.9025 7.9375 32.5625 C4.47971666 30.51049157 4.47971666 30.51049157 0.9375 31.5625 Z M-43.0625 35.5625 C-43.3925 36.5525 -43.7225 37.5425 -44.0625 38.5625 C-43.4025 38.5625 -42.7425 38.5625 -42.0625 38.5625 C-42.3925 37.5725 -42.7225 36.5825 -43.0625 35.5625 Z M-6.0625 37.5625 C-5.0625 39.5625 -5.0625 39.5625 -5.0625 39.5625 Z M-45.0625 39.5625 C-44.46496345 49.52305654 -43.44423939 59.35815666 -42.125 69.25 C-41.95359916 70.60609745 -41.78237456 71.96221718 -41.61132812 73.31835938 C-41.44181641 74.59904297 -41.27230469 75.87972656 -41.09765625 77.19921875 C-40.9469165 78.35123779 -40.79617676 79.50325684 -40.64086914 80.69018555 C-40.21475409 83.74528789 -40.21475409 83.74528789 -38.0625 86.5625 C-37.5998877 86.18029297 -37.13727539 85.79808594 -36.66064453 85.40429688 C-12.97857731 65.84673378 -12.97857731 65.84673378 -6.9375 61.6875 C-5.98875 60.98625 -5.04 60.285 -4.0625 59.5625 C-4.0625 58.9025 -4.0625 58.2425 -4.0625 57.5625 C-9.09736734 55.31927623 -14.13278192 53.07728707 -19.16870117 50.83642578 C-20.88076524 50.07439291 -22.59268092 49.31202658 -24.30444336 48.54931641 C-26.76897602 47.45126439 -29.23404487 46.35442406 -31.69921875 45.2578125 C-32.46086838 44.9181546 -33.22251801 44.5784967 -34.00724792 44.22854614 C-37.66694627 42.60192827 -41.32889479 41.01463686 -45.0625 39.5625 Z M-9.0625 41.5625 C-8.0625 43.5625 -8.0625 43.5625 -8.0625 43.5625 Z M18.9375 43.5625 C19.9375 45.5625 19.9375 45.5625 19.9375 45.5625 Z M2.9375 44.5625 C2.9375 47.5325 2.9375 50.5025 2.9375 53.5625 C3.2675 53.5625 3.5975 53.5625 3.9375 53.5625 C3.9375 50.5925 3.9375 47.6225 3.9375 44.5625 C3.6075 44.5625 3.2775 44.5625 2.9375 44.5625 Z M-0.375 57.75 C-1.67630859 58.84441406 -1.67630859 58.84441406 -3.00390625 59.9609375 C-3.72731201 60.5792041 -3.72731201 60.5792041 -4.46533203 61.20996094 C-7.54052784 63.81414693 -10.68244671 66.33728076 -13.8125 68.875 C-14.48837158 69.42526855 -15.16424316 69.97553711 -15.8605957 70.54248047 C-22.52953427 75.96578169 -29.28388574 81.27729919 -36.0625 86.5625 C-32.2016884 87.8494372 -28.98834141 87.22633092 -25.04272461 86.69799805 C-24.22619919 86.59406738 -23.40967377 86.49013672 -22.56840515 86.38305664 C-19.86626398 86.03710333 -17.16556814 85.68105213 -14.46484375 85.32421875 C-12.59066777 85.08060525 -10.71644529 84.83734925 -8.84217834 84.59443665 C-4.91329717 84.08355397 -0.98513109 83.56754014 2.94262695 83.0480957 C7.98439539 82.38185802 13.02785445 81.72956412 18.07195377 81.08124065 C21.94253443 80.58199005 25.81204015 80.07478024 29.68127251 79.56519508 C31.54092929 79.32137681 33.40093448 79.0802012 35.26127815 78.84168053 C37.85771463 78.50769077 40.45248899 78.16289155 43.04711914 77.81518555 C43.82067749 77.71794693 44.59423584 77.62070831 45.39123535 77.52052307 C49.6076474 77.02775187 49.6076474 77.02775187 52.9375 74.5625 C47.15773507 71.90533463 41.37568904 69.25327745 35.58984375 66.609375 C31.4078801 64.69796627 27.23358899 62.77152609 23.06640625 60.828125 C21.29437027 60.01020119 19.52224001 59.19248161 17.75 58.375 C16.52361816 57.79600952 16.52361816 57.79600952 15.27246094 57.20532227 C9.01798008 54.33989425 5.22792262 52.92332598 -0.375 57.75 Z " fill="#FDFDFD" transform="translate(109.0625,94.4375)"/>
<path d="M0 0 C0.66 0 1.32 0 2 0 C3.81649235 10.92647671 5.43694722 21.87610343 6.91516113 32.85321045 C7.09610467 34.19649927 7.27814478 35.53964085 7.46130371 36.88262939 C7.72128341 38.79366363 7.97596285 40.70541659 8.23046875 42.6171875 C8.45319458 44.28177002 8.45319458 44.28177002 8.68041992 45.97998047 C8.96699441 48.68809846 9.02349522 51.28126727 9 54 C-1.68364376 55.41730291 -12.36733036 56.83428235 -23.05107117 58.25085354 C-28.01242126 58.90869569 -32.97375676 59.56664752 -37.93505859 60.22485352 C-42.72662956 60.86053749 -47.51823926 61.49592878 -52.30987549 62.13112068 C-54.13423025 62.37301359 -55.95857124 62.61501039 -57.78289795 62.85711479 C-60.34611388 63.19725798 -62.90937937 63.5370254 -65.47265625 63.87670898 C-66.22000534 63.97597183 -66.96735443 64.07523468 -67.73735046 64.17750549 C-69.82461792 64.45388764 -71.91217141 64.72789049 -74 65 C-75.09403641 65.14276965 -75.09403641 65.14276965 -76.21017456 65.28842354 C-79.83247986 65.75268864 -83.34608244 66.11959246 -87 66.0625 C-87.763125 66.05347656 -88.52625 66.04445313 -89.3125 66.03515625 C-89.869375 66.02355469 -90.42625 66.01195312 -91 66 C-92.05643953 59.3412296 -93.04271534 52.67372224 -94 46 C-94.09381958 45.35085632 -94.18763916 44.70171265 -94.28430176 44.03289795 C-94.90461962 39.72907834 -95.50342102 35.42294396 -96.07995605 31.11303711 C-96.27665107 29.662686 -96.47920976 28.21311806 -96.68762207 26.7644043 C-96.98211523 24.70801136 -97.25518737 22.64980199 -97.5234375 20.58984375 C-97.68763184 19.39222412 -97.85182617 18.19460449 -98.02099609 16.96069336 C-98 14 -98 14 -96.66650391 12.06860352 C-95 11 -95 11 -92.8125 11.3125 C-92.214375 11.539375 -91.61625 11.76625 -91 12 C-91.74830078 12.53524292 -91.74830078 12.53524292 -92.51171875 13.08129883 C-94.75316018 15.97097865 -94.13609434 18.11184236 -93.8125 21.69921875 C-93.75570068 22.35975754 -93.69890137 23.02029633 -93.64038086 23.70085144 C-92.97147792 31.09568468 -92.00942732 38.45757846 -91 45.8125 C-90.81994797 47.17247783 -90.6402593 48.53250382 -90.4609375 49.89257812 C-89.88226759 56.12917006 -89.88226759 56.12917006 -88 62 C-87.5373877 61.61779297 -87.07477539 61.23558594 -86.59814453 60.84179688 C-82.11331245 57.13804984 -77.62378807 53.44008044 -73.12890625 49.74853516 C-71.83911986 48.68919455 -70.54989498 47.6291691 -69.26171875 46.56787109 C-67.88653403 45.4365418 -66.50605176 44.31165969 -65.125 43.1875 C-64.38507813 42.58292969 -63.64515625 41.97835937 -62.8828125 41.35546875 C-61 40 -61 40 -58 39 C-59.56015357 43.13151779 -62.55721927 45.46551792 -65.875 48.1875 C-66.38546875 48.61869141 -66.8959375 49.04988281 -67.421875 49.49414062 C-73.09991781 54.22810694 -79.06819563 58.5923144 -85 63 C-41.99506066 57.53853933 -41.99506066 57.53853933 1 52 C-0.12019531 51.44570312 -1.24039063 50.89140625 -2.39453125 50.3203125 C-3.86724038 49.58864809 -5.33989372 48.85687139 -6.8125 48.125 C-7.55048828 47.76019531 -8.28847656 47.39539063 -9.04882812 47.01953125 C-9.76103516 46.66503906 -10.47324219 46.31054688 -11.20703125 45.9453125 C-11.8616333 45.62062988 -12.51623535 45.29594727 -13.19067383 44.96142578 C-15 44 -15 44 -18 42 C-18 41.34 -18 40.68 -18 40 C-9.77807808 42.74064064 -1.91970009 46.48013329 6 50 C4.02 35.15 2.04 20.3 0 5 C-0.99 5.33 -1.98 5.66 -3 6 C-3.495 3.525 -3.495 3.525 -4 1 C-3.505 1.99 -3.505 1.99 -3 3 C-2.34 3 -1.68 3 -1 3 C-0.67 2.01 -0.34 1.02 0 0 Z " fill="#F7F8F7" transform="translate(159,118)"/>
<path d="M0 0 C3.95076246 1.49801083 7.64896034 3.3051452 11.39453125 5.2578125 C11.98674973 5.56572723 12.5789682 5.87364197 13.18913269 6.19088745 C15.06474541 7.16672209 16.93863977 8.14580508 18.8125 9.125 C20.09038232 9.79058058 21.368376 10.45594737 22.64648438 11.12109375 C25.76561506 12.74492487 28.88321405 14.37167202 32 16 C32 16.99 32 17.98 32 19 C21.11727433 13.68888255 10.50014991 8.03200101 0 2 C0 1.34 0 0.68 0 0 Z " fill="#FBFBFB" transform="translate(30,71)"/>
<path d="M0 0 C0.66 0 1.32 0 2 0 C3.13519747 3.74240925 3.31480852 7.51137771 3.53515625 11.390625 C3.57813339 12.09523865 3.62111053 12.79985229 3.66539001 13.52581787 C3.80128098 15.76701648 3.93196126 18.00848391 4.0625 20.25 C4.15395281 21.77345819 4.24574586 23.296896 4.33789062 24.8203125 C4.56253607 28.54664695 4.78251071 32.27324025 5 36 C4.01 36 3.02 36 2 36 C1.34 24.12 0.68 12.24 0 0 Z " fill="#FAFCFB" transform="translate(102,35)"/>
<path d="M0 0 C0.66 0 1.32 0 2 0 C1.28234758 3.92373278 -0.54087735 7.24156124 -2.37890625 10.734375 C-2.71043198 11.37240051 -3.0419577 12.01042603 -3.38352966 12.66778564 C-4.43923252 14.69727922 -5.50077132 16.72365345 -6.5625 18.75 C-7.28098656 20.12870433 -7.99908992 21.50760842 -8.71679688 22.88671875 C-10.47343289 26.26014335 -12.23530782 29.63078321 -14 33 C-14.66 33 -15.32 33 -16 33 C-15.38900567 28.58565636 -13.7400875 25.28637952 -11.62109375 21.38671875 C-11.28956802 20.77230423 -10.9580423 20.15788971 -10.61647034 19.52485657 C-9.5629246 17.57568605 -8.50038505 15.63159063 -7.4375 13.6875 C-6.71880027 12.36165361 -6.00069478 11.03548491 -5.28320312 9.70898438 C-3.52899907 6.46889671 -1.7666983 3.23329555 0 0 Z " fill="#F9FAF9" transform="translate(178,45)"/>
<path d="M0 0 C4.67461851 -0.32613618 7.16674383 0.29417212 11 3 C10.01 3.99 9.02 4.98 8 6 C7.608125 5.525625 7.21625 5.05125 6.8125 4.5625 C4.59191626 2.64820367 2.86624291 2.38733012 0 2 C0 1.34 0 0.68 0 0 Z " fill="#F4F4F4" transform="translate(107,95)"/>
<path d="M0 0 C3.63 0 7.26 0 11 0 C7.96474514 2.02350324 6.80573798 2.32124018 3.3125 2.625 C2.50425781 2.69976562 1.69601563 2.77453125 0.86328125 2.8515625 C0.24839844 2.90054688 -0.36648437 2.94953125 -1 3 C-0.67 2.01 -0.34 1.02 0 0 Z " fill="#F9F9F9" transform="translate(107,177)"/>
<path d="" fill="#D5D5D5" transform="translate(0,0)"/>
</svg>
